<?xml version="1.0" encoding="UTF-8"?> <svg xmlns="http://www.w3.org/2000/svg" xmlns:xlink="http://www.w3.org/1999/xlink" id="Layer_2" x="0px" y="0px" width="200px" height="100px" viewBox="0 0 200 100" style="enable-background:new 0 0 200 100;" xml:space="preserve"> <style type="text/css"> .st0{fill:#BFBFBF;} </style> <g> <g> <path class="st0" d="M39.6,39.6h-9.4V64h9.2c8.8,0,13.9-5.2,13.9-12.2v-0.1C53.4,44.6,48.3,39.6,39.6,39.6z M46.4,51.8 c0,3.9-2.7,6.1-6.7,6.1H37V45.6h2.7C43.8,45.6,46.4,47.9,46.4,51.8L46.4,51.8z M57.8,64h6.8V39.6h-6.8V64z M80.2,48.8 C76.9,48,76,47.6,76,46.4v-0.1c0-0.9,0.8-1.6,2.4-1.6c2.2,0,4.6,0.8,6.8,2.4l3.4-4.8c-2.6-2.1-5.9-3.2-10-3.2 c-5.8,0-9.4,3.3-9.4,7.8v0.1c0,5,4,6.5,9.2,7.6c3.3,0.8,4.1,1.3,4.1,2.3v0.1c0,1-1,1.7-2.8,1.7c-2.8,0-5.5-1-7.9-2.9l-3.8,4.5 c3,2.7,7.1,4,11.4,4c5.9,0,9.8-3,9.8-7.9v-0.1C89.3,51.8,85.8,50,80.2,48.8z M118.8,51.8L118.8,51.8c0-7.1-5.6-12.6-13.1-12.6 c-7.5,0-13.1,5.7-13.1,12.6v0.1c0,7,5.6,12.6,13.1,12.6c2.8,0,5.3-0.8,7.4-2.2l2.7,2.4l3.4-3.8l-2.5-2.1 C118,56.8,118.8,54.4,118.8,51.8z M111.9,51.9c0,0.8-0.1,1.6-0.4,2.4l-3.3-3l-3.4,3.8l3.4,2.9c-0.7,0.3-1.6,0.5-2.5,0.5 c-3.7,0-6.2-3.1-6.2-6.6v-0.1c0-3.5,2.5-6.6,6.1-6.6C109.4,45.2,112,48.3,111.9,51.9L111.9,51.9L111.9,51.9L111.9,51.9z M138.7,53.3c0,3.4-1.8,5-4.5,5c-2.7,0-4.5-1.7-4.5-5.2V39.6h-6.8v13.7c0,7.6,4.3,11.1,11.3,11.1s11.4-3.4,11.4-11.3V39.6h-6.8 L138.7,53.3L138.7,53.3z M160.7,48.8c-3.4-0.8-4.2-1.3-4.2-2.4v-0.1c0-0.9,0.8-1.6,2.4-1.6c2.2,0,4.6,0.8,6.8,2.4l3.4-4.8 c-2.6-2.1-5.9-3.2-10-3.2c-5.8,0-9.4,3.3-9.4,7.8v0.1c0,5,4,6.5,9.2,7.6c3.3,0.8,4.1,1.3,4.1,2.3v0.1c0,1-1,1.7-2.8,1.7 c-2.8,0-5.5-1-7.9-2.9l-3.8,4.5c3,2.7,7.1,4,11.4,4c5.9,0,9.8-3,9.8-7.9v-0.1C169.7,51.8,166.3,50,160.7,48.8z"></path> </g> </g> </svg> 