<?xml version="1.0" encoding="UTF-8"?> <svg xmlns="http://www.w3.org/2000/svg" xmlns:xlink="http://www.w3.org/1999/xlink" id="Layer_3" x="0px" y="0px" width="200px" height="100px" viewBox="0 0 200 100" style="enable-background:new 0 0 200 100;" xml:space="preserve"> <style type="text/css"> .st0{fill:#BFBFBF;} </style> <g> <path class="st0" d="M162.1,42.5l-4.9,8.8l-4.7-8.8h-4.4c0.8,1.5,6.6,12.3,6.6,12.3s0,6.2,0,7.1h4.7c0-1,0-7.1,0-7.1 s6-10.8,6.8-12.3H162.1z"></path> <path class="st0" d="M32.2,39.7v25h36v-25H32.2z M40.6,61.4h-4.1V43h4.1c4.3,0,7.8,4.2,7.8,9.2C48.4,57.3,44.8,61.4,40.6,61.4z M64,61.4h-4.1c-4.3,0-7.8-4.1-7.8-9.3c0-5,3.6-9.2,7.8-9.2H64V61.4z"></path> <path class="st0" d="M109.3,55.1c0,3.5-1.2,4.2-4.6,4.2c-3.4,0-4.6-0.8-4.6-4.2v-5.8c0-3.4,1.2-4.1,4.6-4.1c3.4,0,4.6,0.7,4.6,4.1 V55.1z M111.2,43.5c-1.3-0.9-3.6-1.4-6.5-1.4c-2.9,0-4.9,0.4-6.5,1.4c-1.7,1.1-2.5,2.9-2.5,5.7v6.1c0,2.8,0.8,4.7,2.4,5.7 c1.3,0.9,3.4,1.3,6.6,1.3c3.1,0,5.3-0.4,6.5-1.3c1.6-1,2.5-3,2.5-5.7v-6.1C113.7,46.6,112.8,44.6,111.2,43.5"></path> <path class="st0" d="M88.5,54.6c0,3.4-1.8,4.3-3.3,4.3h-5.4V45.3h5.4c1.5,0,3.3,0.9,3.3,4V54.6z M85.1,42.5h-9.7v19.5h10.4 c5.1,0,7.1-2.1,7.1-7.7v-4.3C92.9,44.5,90.7,42.5,85.1,42.5"></path> <polygon class="st0" points="121.3,42.5 116.9,42.5 116.9,61.9 129.4,61.9 129.4,58.7 121.3,58.7 "></polygon> <path class="st0" d="M165.9,60.1c0,0.9-0.7,1.5-1.5,1.5c-0.9,0-1.5-0.6-1.5-1.5c0-0.9,0.7-1.5,1.5-1.5 C165.3,58.5,165.9,59.2,165.9,60.1 M162.6,60.1c0,1.1,0.9,1.8,1.9,1.8c1,0,1.9-0.8,1.9-1.8c0-1.1-0.9-1.8-1.9-1.8 C163.4,58.2,162.6,59,162.6,60.1 M164,59.3h0.4c0.4,0,0.5,0.1,0.5,0.3c0,0.2-0.1,0.4-0.5,0.4H164V59.3z M164,60.2h0.4l0.6,0.9h0.4 l-0.6-0.9c0.3,0,0.6-0.2,0.6-0.6c0-0.4-0.2-0.6-0.8-0.6h-0.8v2.1h0.3V60.2z"></path> <path class="st0" d="M142.5,51.6c3.5-0.3,4.2-2,4.2-4.4c0-2.1-0.9-3.2-1.9-3.8c-0.8-0.5-1.8-0.9-3.9-0.9h-9.1v19.5h9.2 c2.8,0,4-0.6,4.6-0.9c0.9-0.6,2.2-2,2.2-4.2C147.7,54.1,146.8,51.5,142.5,51.6z M140.2,59.1h-4v0V45.3v0h4.3c1.5,0,2.4,1.2,2.4,2.8 c0,2.4-1.2,2.5-4.5,2.6c0,0.4,0,1.7,0,2.3c3,0,5.4-0.2,5.4,2.9C143.8,57.4,142.8,59.1,140.2,59.1"></path> </g> </svg> 