<?xml version="1.0" encoding="UTF-8"?> <svg xmlns="http://www.w3.org/2000/svg" xmlns:xlink="http://www.w3.org/1999/xlink" id="Layer_1" x="0px" y="0px" width="200px" height="100px" viewBox="0 0 200 100" style="enable-background:new 0 0 200 100;" xml:space="preserve"> <style type="text/css"> .st0{fill:#BFBFBF;} </style> <g> <path class="st0" d="M53.1,50.8l0.3-2.9c-0.1-1.3-0.4-2.6-1-3.7l-1.5,2.1c0.2,0.7,0.3,1.5,0.2,2.3c-0.3,3.7-3.6,6.6-7.4,6.6 c-0.9,0-1.7-0.2-2.5-0.5l9.2-9.6l3.9-3.9l-2.8,1.5c-1.8-2.3-4.8-3.7-8.2-3.5c-5.8,0.2-10.8,5-11,10.6c-0.3,5.6,4.2,10,10,9.7 C47.4,59.2,51.9,55.5,53.1,50.8L53.1,50.8z M63.5,53.1c0.2-1.6,0-2.7-0.4-3.4C62.7,49,62,48.6,61,48.6c-0.5,0-0.9,0.1-1.4,0.2 c-0.5,0.1-0.9,0.4-1.4,0.6l-0.8,8.1c0.3,0.1,0.5,0.2,0.9,0.2c0.3,0,0.7,0.1,1.1,0.1c1.2,0,2.2-0.4,2.9-1.2 C62.9,56,63.4,54.7,63.5,53.1L63.5,53.1z M74.9,61.6c-2.1,0-3.5-0.4-4.4-1.3c-0.8-0.8-1.2-2.2-1-4.1l0.8-7.6h-1.8 c0.3,1.2,0.4,2.7,0.2,4.3c-0.3,2.6-1.1,4.7-2.6,6.2c-1.5,1.6-3.2,2.4-5.1,2.4c-0.8,0-1.5-0.1-2.1-0.3c-0.6-0.2-1.2-0.5-1.8-0.8 l-0.7,6.7h-5l0.9-9.1c-2.7,3.6-6.9,6-11.6,6c-7.4,0-12.9-6.1-12.3-13.5C29.1,43.1,35.6,37,42.9,37c3.7,0,7,1.6,9.2,4.1l4.2-1.6 l-2.5,4.2c0.2,0.5,0.5,1,0.6,1.5h4.1l-0.2,1.7c0.8-0.6,1.6-1.1,2.4-1.5c0.8-0.4,1.7-0.6,2.7-0.6c0.8,0,1.6,0.1,2.2,0.4h4.8l0.5-4.6 h5l-0.5,4.6h4.8l-0.4,3.5h-4.8l-0.6,5.7c-0.1,0.6-0.1,1.1-0.1,1.5c0,0.4,0,0.8,0.1,1.1c0.1,0.3,0.3,0.6,0.6,0.8 c0.3,0.2,0.8,0.3,1.5,0.3c0.3,0,0.6-0.1,1.1-0.2c0.5-0.1,0.8-0.2,1-0.3h0.4l-0.4,3.6c-0.6,0.1-1.2,0.3-1.8,0.3 C76.5,61.6,75.8,61.6,74.9,61.6L74.9,61.6z M37.3,48.6c0.3-3.7,3.6-6.6,7.4-6.6c1.9,0,3.6,0.7,4.7,2l-11.3,8.4 C37.5,51.2,37.2,50,37.3,48.6L37.3,48.6z M85,61.3h-5l1.6-16.2h5L85,61.3L85,61.3z M87,42.9h-5.3l0.4-3.9h5.3L87,42.9L87,42.9z M105.5,61.3l0.8-8.1c0.1-0.8,0.1-1.5,0.2-2c0-0.5,0-1-0.1-1.3c-0.1-0.3-0.3-0.6-0.6-0.7c-0.3-0.2-0.7-0.2-1.2-0.2 c-0.4,0-0.8,0.1-1.2,0.3c-0.4,0.2-0.8,0.4-1.3,0.7l-1.1,11.5h-5.1l0.8-8.1c0.1-0.8,0.1-1.5,0.1-2c0-0.6,0-1-0.1-1.4 c-0.1-0.3-0.3-0.6-0.6-0.7c-0.3-0.2-0.7-0.2-1.2-0.2c-0.4,0-0.8,0.1-1.2,0.3c-0.4,0.2-0.8,0.4-1.2,0.7l-1.1,11.5h-5l1.6-16.2h5 L92.7,47c0.9-0.7,1.7-1.2,2.5-1.6c0.8-0.4,1.6-0.6,2.5-0.6c1,0,1.8,0.2,2.5,0.7c0.7,0.5,1.2,1.2,1.5,2.1c1.1-0.9,2-1.6,2.9-2.1 c0.9-0.5,1.8-0.7,2.7-0.7c0.7,0,1.4,0.1,2,0.4c0.6,0.2,1,0.6,1.4,1.1c0.4,0.5,0.7,1.1,0.8,1.9c0.2,0.7,0.2,1.6,0.1,2.8l-1.1,10.5 L105.5,61.3L105.5,61.3z M118.6,42.9h-5.3l0.4-3.9h5.3L118.6,42.9L118.6,42.9z M131.7,57.5c-0.6-1.2-0.8-2.8-0.6-4.6 c0.3-2.6,1.2-4.7,2.9-6.3c1.7-1.6,3.9-2.4,6.6-2.4c2.5,0,4.3,0.7,5.4,2c1.1,1.3,1.5,3.2,1.3,5.7l-0.2,1.8h-11 c0,0.7,0.1,1.4,0.3,1.9c0.2,0.5,0.5,0.9,0.9,1.2c0.4,0.3,0.9,0.5,1.4,0.6c0.6,0.1,1.2,0.2,1.9,0.2c0.6,0,1.2-0.1,1.7-0.2 c0.6-0.1,1.1-0.3,1.6-0.5c0.4-0.2,0.8-0.4,1.2-0.6c0.4-0.2,0.7-0.4,0.9-0.6h0.5l-0.4,4.2c-0.4,0.2-0.8,0.3-1.2,0.5 c-0.3,0.1-0.8,0.3-1.4,0.4c-0.6,0.1-1.1,0.3-1.7,0.3c-0.4,0.1-0.9,0.1-1.5,0.1l-23.7,0h-0.5h-4.5l1.6-16.2h5L117,57.4l8-8.4l-6,0 l0.4-3.7l12.2-0.1l-0.3,3.3l-8.6,9L131.7,57.5L131.7,57.5z M142.4,50.7c0.1-1.1-0.1-1.9-0.5-2.4c-0.4-0.6-1.1-0.8-2-0.8 c-1,0-1.8,0.3-2.4,0.9c-0.6,0.6-1,1.4-1.1,2.4H142.4L142.4,50.7z M169.6,44.7l-10.4,22.1h-5.4l3.1-6.3l-3.4-12.4l-1.3,12.8h-5 l2.2-22.4h5l-0.6,6.2h4l2.4,10.1l4.2-10.1H169.6L169.6,44.7z"></path> </g> </svg> 