<?xml version="1.0" encoding="UTF-8"?> <svg xmlns="http://www.w3.org/2000/svg" xmlns:xlink="http://www.w3.org/1999/xlink" id="Layer_4" x="0px" y="0px" width="160px" height="55.8px" viewBox="0 0 160 55.8" style="enable-background:new 0 0 160 55.8;" xml:space="preserve"> <style type="text/css"> .st0{fill:#E2E2E2;} .st1{fill:#1E83F0;} .st2{fill:#FFFFFF;} </style> <g> <g> <g> <path class="st0" d="M59.5,34.2c0-0.1,0.1-0.2,0.2-0.2h4.3c0.1,0,0.2,0.1,0.2,0.2v0.3c0,0.1-0.1,0.2-0.2,0.2h-3.7v2.7h3.2 c0.1,0,0.2,0.1,0.2,0.2v0.3c0,0.1-0.1,0.2-0.2,0.2h-3.2v2.8h3.7c0.1,0,0.2,0.1,0.2,0.2v0.3c0,0.1-0.1,0.2-0.2,0.2h-4.3 c-0.1,0-0.2-0.1-0.2-0.2V34.2z"></path> <path class="st0" d="M73.2,37.7L71,34.3C71,34.1,71,34,71.2,34h0.6c0.1,0,0.2,0,0.2,0.1l1.7,2.9h0l1.7-2.9c0-0.1,0.1-0.1,0.2-0.1 h0.6c0.2,0,0.3,0.2,0.2,0.3l-2.1,3.4l2.2,3.6c0.1,0.2,0,0.3-0.2,0.3h-0.5c-0.1,0-0.2-0.1-0.2-0.1l-1.9-3.1h0l-1.9,3.1 c0,0.1-0.1,0.1-0.2,0.1h-0.5c-0.2,0-0.3-0.2-0.2-0.3L73.2,37.7z"></path> <path class="st0" d="M84.9,34.7H83c-0.1,0-0.2-0.1-0.2-0.2v-0.3c0-0.1,0.1-0.2,0.2-0.2h4.7c0.1,0,0.2,0.1,0.2,0.2v0.3 c0,0.1-0.1,0.2-0.2,0.2h-1.9v6.8c0,0.1-0.1,0.2-0.2,0.2h-0.4c-0.1,0-0.2-0.1-0.2-0.2V34.7z"></path> <path class="st0" d="M94.6,34.2c0-0.1,0.1-0.2,0.2-0.2h4.3c0.1,0,0.2,0.1,0.2,0.2v0.3c0,0.1-0.1,0.2-0.2,0.2h-3.7v2.7h3.2 c0.1,0,0.2,0.1,0.2,0.2v0.3c0,0.1-0.1,0.2-0.2,0.2h-3.2v2.8h3.7c0.1,0,0.2,0.1,0.2,0.2v0.3c0,0.1-0.1,0.2-0.2,0.2h-4.3 c-0.1,0-0.2-0.1-0.2-0.2V34.2z"></path> <path class="st0" d="M106.4,34.1c0-0.1,0.1-0.2,0.2-0.2h0.3l5,6.2c0,0,0,0,0,0v-5.9c0-0.1,0.1-0.2,0.2-0.2h0.4 c0.1,0,0.2,0.1,0.2,0.2v7.4c0,0.1-0.1,0.2-0.2,0.2h-0.2l-5-6.3h0v6c0,0.1-0.1,0.2-0.2,0.2h-0.4c-0.1,0-0.2-0.1-0.2-0.2V34.1z"></path> <path class="st0" d="M120.3,34.2c0-0.1,0.1-0.2,0.2-0.2h2.5c2.1,0,3.9,1.7,3.9,3.8c0,2.1-1.7,3.9-3.9,3.9h-2.5 c-0.1,0-0.2-0.1-0.2-0.2V34.2z M122.8,40.9c1.8,0,3.1-1.3,3.1-3.1c0-1.8-1.3-3.1-3.1-3.1h-1.6v6.2H122.8z"></path> <path class="st0" d="M134,34.2c0-0.1,0.1-0.2,0.2-0.2h4.3c0.1,0,0.2,0.1,0.2,0.2v0.3c0,0.1-0.1,0.2-0.2,0.2h-3.7v2.7h3.2 c0.1,0,0.2,0.1,0.2,0.2v0.3c0,0.1-0.1,0.2-0.2,0.2h-3.2v2.8h3.7c0.1,0,0.2,0.1,0.2,0.2v0.3c0,0.1-0.1,0.2-0.2,0.2h-4.3 c-0.1,0-0.2-0.1-0.2-0.2V34.2z"></path> <path class="st0" d="M145.8,34.2c0-0.1,0.1-0.2,0.2-0.2h2.5c2.1,0,3.9,1.7,3.9,3.8c0,2.1-1.7,3.9-3.9,3.9H146 c-0.1,0-0.2-0.1-0.2-0.2V34.2z M148.3,40.9c1.8,0,3.1-1.3,3.1-3.1c0-1.8-1.3-3.1-3.1-3.1h-1.7v6.2H148.3z"></path> </g> </g> <g> <path class="st1" d="M42.2,36.4V17.7l0.1-0.3l-0.1-0.1l0-0.4L25.4,7.2L25.2,7L25,7.1l-0.3-0.2l-0.3,0.2L24.2,7l-0.2,0.3L7.3,16.9 l-0.1,0v0.4l-0.2,0.1l0.2,0.3v18.7l-0.1,0.3l0.1,0.1l0,0.4l16.8,9.7l0.2,0.3l0.1-0.1l0.3,0.2l0.3-0.2l0.2,0.1l0.2-0.3l16.8-9.7 l0.1,0v-0.4l0.2-0.1L42.2,36.4z M40.4,20.9v12.4l-3.6-6.2L40.4,20.9z M34.2,28l-9.5,16.4L15.2,28H34.2z M13.7,28.9l8.6,14.9 L9.4,36.3L13.7,28.9z M9.4,17.8l12.9-7.4l-8.6,14.9L9.4,17.8z M15.2,26.2l9.5-16.4l9.5,16.4H15.2z M27.2,10.4l12.9,7.4l-4.3,7.4 L27.2,10.4z M40.1,36.3l-12.9,7.4l8.6-14.9L40.1,36.3z M12.6,27.1L9,33.3V20.9L12.6,27.1z"></path> <g> <path class="st2" d="M58.5,23.9l0.9-0.9c0.2-0.2,0.4-0.1,0.5,0c0.2,0.2,0.6,0.6,1.2,0.6c0.7,0,1.4-0.6,1.4-1.8v-8.4 c0-0.2,0.1-0.3,0.3-0.3h1.7c0.2,0,0.3,0.2,0.3,0.3v8.4c0,2.5-1.7,3.9-3.7,3.9c-1.6,0-2.4-0.9-2.7-1.3 C58.3,24.2,58.4,24,58.5,23.9z"></path> <path class="st2" d="M76.8,12.8c3.6,0,6.4,2.9,6.4,6.4s-2.9,6.4-6.4,6.4s-6.4-2.8-6.4-6.4S73.3,12.8,76.8,12.8z M76.8,23.3 c2.2,0,4.1-1.8,4.1-4.1c0-2.2-1.9-4.1-4.1-4.1s-4.1,1.9-4.1,4.1C72.7,21.5,74.6,23.3,76.8,23.3z"></path> <path class="st2" d="M89,13.3c0-0.2,0.1-0.3,0.3-0.3h4.1c2.1,0,3.8,1.4,3.8,3.3c0,1.4-1.1,2.4-2,2.8c0.9,0.3,2.3,1.3,2.3,2.9 c0,2-1.7,3.4-3.9,3.4h-4.3c-0.2,0-0.3-0.2-0.3-0.3V13.3z M93.2,18.2c0.9,0,1.5-0.7,1.5-1.6s-0.6-1.5-1.5-1.5h-1.9v3.1H93.2z M93.5,23.4c0.9,0,1.6-0.7,1.6-1.6c0-0.9-0.9-1.6-1.8-1.6h-1.9v3.2H93.5z"></path> <path class="st2" d="M103.5,13.3c0-0.2,0.2-0.3,0.3-0.3h1.7c0.2,0,0.3,0.2,0.3,0.3v11.8c0,0.2-0.2,0.3-0.3,0.3h-1.7 c-0.2,0-0.3-0.2-0.3-0.3V13.3z"></path> <path class="st2" d="M112.4,13.3c0-0.2,0.1-0.3,0.3-0.3h7.3c0.2,0,0.3,0.2,0.3,0.3v1.5c0,0.2-0.1,0.3-0.3,0.3h-5.3v3.4h4.4 c0.2,0,0.3,0.2,0.3,0.3v1.5c0,0.2-0.2,0.3-0.3,0.3h-4.4v4.5c0,0.2-0.2,0.3-0.3,0.3h-1.6c-0.2,0-0.3-0.2-0.3-0.3V13.3z"></path> <path class="st2" d="M128.9,19.5l-4.1-6c-0.1-0.2,0-0.5,0.3-0.5h1.8c0.1,0,0.2,0.1,0.3,0.2l2.9,4.1l2.9-4.1 c0.1-0.1,0.1-0.2,0.3-0.2h1.8c0.3,0,0.4,0.3,0.3,0.5l-4.1,5.9v5.7c0,0.2-0.2,0.3-0.3,0.3h-1.6c-0.2,0-0.3-0.2-0.3-0.3V19.5z"></path> </g> </g> </g> </svg> 