<?xml version="1.0" encoding="UTF-8" standalone="no"?>
<!-- Created with Inkscape (http://www.inkscape.org/) -->

<svg
   width="127.56837mm"
   height="68.099602mm"
   viewBox="0 0 127.56837 68.099602"
   version="1.1"
   id="svg1"
   inkscape:version="1.3.2 (091e20e, 2023-11-25, custom)"
   sodipodi:docname="rabbit-logo.svg"
   xmlns:inkscape="http://www.inkscape.org/namespaces/inkscape"
   xmlns:sodipodi="http://sodipodi.sourceforge.net/DTD/sodipodi-0.dtd"
   xmlns="http://www.w3.org/2000/svg"
   xmlns:svg="http://www.w3.org/2000/svg">
  <sodipodi:namedview
     id="namedview1"
     pagecolor="#ffffff"
     bordercolor="#000000"
     borderopacity="0.25"
     inkscape:showpageshadow="2"
     inkscape:pageopacity="0.0"
     inkscape:pagecheckerboard="0"
     inkscape:deskcolor="#d1d1d1"
     inkscape:document-units="mm"
     inkscape:zoom="0.57103676"
     inkscape:cx="354.61815"
     inkscape:cy="419.41258"
     inkscape:window-width="1600"
     inkscape:window-height="837"
     inkscape:window-x="-8"
     inkscape:window-y="32"
     inkscape:window-maximized="1"
     inkscape:current-layer="layer1" />
  <defs
     id="defs1" />
  <g
     inkscape:label="Layer 1"
     inkscape:groupmode="layer"
     id="layer1"
     transform="translate(-10.952857,-37.318499)">
    <path
       style="fill:#f2f2f2;stroke-width:0.264583"
       id="path1"
       d="m 22.859628,44.864328 c 1.672158,0.381445 3.298213,0.983107 4.87396,1.657837 0.24244,0.112689 0.485947,0.223118 0.727326,0.338071 0.514816,0.245171 2.003033,1.090782 1.506495,0.81043 -0.840629,-0.474636 -3.347453,-1.9249 -2.514513,-1.436891 1.36311,0.798631 2.728871,1.592966 4.10509,2.368788 0.274836,0.154934 0.56455,0.28185 0.846823,0.422775 2.190599,1.054457 4.57535,1.524987 6.966662,1.843656 2.208564,0.224134 4.454718,0.465561 6.640221,-0.02191 1.91435,-0.589982 3.690498,-1.593684 5.315804,-2.752905 1.43373,-0.99558 2.5019,-2.116508 3.517625,-3.521499 0.960901,-1.297196 1.752047,-2.713807 2.507081,-4.13866 0.752488,-1.841973 1.221113,-1.248457 -3.257799,-2.40321 -0.203546,-0.05248 -0.152969,0.391612 -0.232746,0.586092 -0.222776,0.543075 -0.398846,0.933698 -0.640426,1.484307 -0.842635,2.093375 -1.968257,4.049522 -3.059798,6.017974 -1.163492,1.838783 -1.942915,3.867997 -2.826629,5.84463 -0.861875,2.149703 -1.227103,4.454128 -1.521714,6.739051 -0.239088,2.056532 -0.267702,4.129125 -0.291062,6.196994 -0.01905,1.484138 -0.01119,2.968384 -0.01056,4.452586 -0.04172,1.672013 0.328562,3.317478 0.794226,4.912725 0.552918,1.3731 1.009203,2.780236 1.513591,4.170865 0.221435,0.748501 1.271379,1.984235 0.426014,2.636853 -1.278864,0.36757 -2.607726,0.247952 -3.913473,0.146355 -2.428542,-0.32615 -4.867611,-0.543907 -7.313033,-0.690319 -2.487766,-0.129781 -4.96851,-0.192665 -7.438409,0.15608 -2.486707,0.396785 -4.842143,1.253217 -7.115187,2.306153 -1.450954,0.709655 -2.776687,1.613271 -3.939918,2.729614 -0.905514,0.905176 -1.467023,2.034865 -1.983495,3.186086 -0.462129,1.047379 -0.717732,2.160296 -0.971004,3.270811 0,0 3.46986,1.858269 3.46986,1.858269 v 0 c 0.204204,-1.093623 0.449849,-2.182159 0.911254,-3.201273 0.519679,-1.092335 1.019564,-2.200325 1.904452,-3.059475 1.147848,-1.066133 2.416579,-1.980078 3.843811,-2.643476 2.225986,-1.052235 4.548292,-1.886434 6.997357,-2.241944 2.469963,-0.282202 4.946296,-0.209251 7.42637,-0.07645 2.452799,0.146042 4.895522,0.386313 7.331348,0.710986 1.386207,0.0993 2.86408,0.256135 4.155077,-0.37083 0.989849,-1.022741 0.223081,-1.961948 -0.246396,-3.064988 -0.510466,-1.388806 -0.94299,-2.805137 -1.544386,-4.160161 -0.479446,-1.55303 -0.859483,-3.163808 -0.819195,-4.799364 -0.0071,-1.487879 -0.014,-2.975761 -0.02019,-4.463642 0.0094,-2.0588 0.02903,-4.121068 0.244909,-6.170811 0.265885,-2.2513 0.641635,-4.513382 1.484688,-6.629659 0.86759,-1.971969 1.645647,-3.989089 2.7882,-5.826885 1.097666,-1.976744 2.234824,-3.93333 3.106401,-6.026314 0.04584,-0.09665 0.929532,-2.007687 0.915924,-2.020713 -3.225609,-3.087518 -2.854028,-3.377665 -3.561357,-1.497663 -0.733738,1.414828 -1.513576,2.816572 -2.464745,4.097832 -0.965372,1.324208 -2.093584,2.479816 -3.448378,3.416864 -1.586926,1.136822 -3.329636,2.110832 -5.225137,2.618139 -2.155889,0.403987 -4.352944,0.190995 -6.518518,-0.05317 -2.38795,-0.352092 -4.759095,-0.867386 -6.926011,-1.9749 -0.279972,-0.146789 -1.110031,-0.604586 -0.839915,-0.440365 0.835978,0.508249 3.382963,1.967323 2.538606,1.473115 -2.098556,-1.228304 -4.158184,-2.565693 -6.402672,-3.522495 -1.610923,-0.64805 -3.253514,-1.236446 -4.944529,-1.638888 z" />
    <path
       style="fill:#f2f2f2;stroke-width:0.264583"
       id="path2"
       d="m 58.924356,41.012635 c 0.482211,0.05466 0.731716,0.04635 1.195335,0.271574 0.238426,0.115824 0.907817,0.544737 0.668668,0.430408 -0.910183,-0.435128 -1.725261,-1.086892 -2.685968,-1.394812 -0.283303,-0.0908 0.385545,0.455851 0.543316,0.708068 0.164696,0.263284 0.279908,0.55446 0.419862,0.831691 0.855433,2.733921 -0.303421,5.396606 -1.352089,7.897537 -1.31222,2.791738 -2.694393,5.555858 -3.927639,8.383842 -0.900219,1.890492 -1.804866,3.776366 -2.751765,5.644046 -0.658397,1.050303 -1.405128,2.246074 -2.579412,2.769182 -1.043591,-0.388641 -4.8593,-1.822577 2.935004,1.601423 0.136565,0.05999 -0.168306,-0.2501 -0.218228,-0.390658 -0.07123,-0.20053 -0.106283,-0.412657 -0.141621,-0.622506 -0.08984,-0.53349 -0.107833,-1.008949 -0.143954,-1.548162 -0.0016,-1.175194 -0.318159,-2.663806 0.58012,-3.596166 0.08258,-0.02342 0.162105,-0.07614 0.24774,-0.07026 0.218696,0.01503 0.448807,0.209598 0.612285,0.320831 -0.987094,-0.558667 -1.964124,-1.135504 -2.961283,-1.676005 -0.334399,-0.181256 0.614646,0.449524 0.90338,0.697134 1.224106,1.291831 1.860143,3.016832 2.47359,4.657543 0.697944,2.4014 1.315974,4.825796 1.948733,7.24518 0.554683,2.107147 1.328372,4.144963 2.134042,6.166324 0.503473,1.562396 1.278152,2.981502 2.175785,4.345683 1.954506,2.47436 5.189059,3.783727 8.203438,4.461169 1.702869,0.276971 3.453995,0.527799 5.180864,0.300151 0.949854,-0.125217 1.288315,-0.288745 2.169708,-0.59242 0.275791,-0.140029 0.551582,-0.280057 0.827376,-0.420087 0,0 -3.247496,-2.136595 -3.247496,-2.136595 v 0 c -0.260517,0.128325 -0.521031,0.256651 -0.781547,0.384976 -2.519704,0.817806 -4.635916,0.656236 -7.209322,0.127302 -1.004956,-0.261395 -1.227807,-0.280546 -2.16413,-0.667748 -0.314161,-0.129915 -1.20686,-0.620424 -0.923843,-0.432072 4.877705,3.24617 2.351804,1.532226 1.526876,0.540774 -0.921144,-1.33971 -1.738628,-2.726021 -2.239698,-4.285001 -0.817639,-2.012307 -1.605889,-4.040894 -2.18531,-6.136664 -0.637305,-2.42234 -1.27086,-4.845656 -1.912594,-7.266683 -0.585171,-1.673842 -1.231315,-3.401857 -2.341718,-4.803482 -1.36774,-1.353126 -2.798427,-1.936133 -4.673304,-2.963648 -0.236466,-0.129593 -0.57522,-0.135141 -0.823365,-0.0449 -0.119716,0.04354 -0.212772,0.140134 -0.319156,0.210201 -0.887645,1.104675 -0.746726,2.543371 -0.686951,3.884827 0.124404,2.298459 0.152249,5.792446 4.35505,4.872119 1.16642,-0.696658 1.986825,-1.849678 2.651778,-3.0105 0.936911,-1.882698 1.853099,-3.772215 2.723269,-5.686938 1.198883,-2.844417 2.560161,-5.621976 3.894809,-8.404355 1.102233,-2.581246 2.279973,-5.29246 1.57244,-8.146944 -0.136877,-0.31359 -0.576672,-1.445691 -0.88941,-1.678443 -1.665785,-1.239739 -3.740367,-2.940579 -5.98602,-3.103578 z" />
    <path
       style="fill:#f2f2f2;stroke-width:0.264583"
       id="path3"
       d="m 66.373435,71.429389 c 1.244052,-0.612891 2.568993,-0.950526 3.950264,-1.009849 0.590317,0.06969 0.726241,0.03706 1.254807,0.273122 0.16977,0.07582 0.647189,0.3664 0.484386,0.276593 -4.67777,-2.580426 -3.171412,-2.194431 -2.255091,-0.74826 0.627128,1.577141 0.717359,3.315737 0.993134,4.980672 0.515491,2.127494 1.239856,4.192495 1.694059,6.335818 0.36662,1.598941 0.998889,3.101354 1.885757,4.477139 0,0 3.592337,1.566164 3.592337,1.566164 v 0 C 77.021803,86.276236 76.385501,84.795242 75.994711,83.229213 75.537149,81.087834 74.812992,79.026111 74.279614,76.904317 74.01095,75.208054 73.888485,73.467556 73.389037,71.822062 72.434931,69.874099 71.566661,70.008957 68.991728,68.517763 68.435611,68.195707 67.775772,68.15267 67.151892,68.14704 c -1.412465,0.125531 -2.748732,0.502568 -4.052136,1.061188 z" />
    <path
       style="fill:#f2f2f2;stroke-width:0.264583"
       id="path4"
       d="m 70.263585,76.83811 c -1.44245,0.381439 -2.815061,1.003702 -4.16592,1.629537 -1.26183,0.556104 -2.352511,1.280948 -3.030847,2.498161 -0.525269,1.253525 -0.433623,1.917007 0.35315,3.003987 1.810554,1.991468 4.22506,3.071489 6.554663,4.365011 0,0 -3.071535,-2.432809 -3.071535,-2.432809 v 0 c 5.88508,3.558674 1.184863,0.832746 0.113112,-0.393894 -0.768416,-0.878231 -1.005144,-1.452335 -0.535757,-2.581402 0.620736,-1.152646 1.696535,-1.783799 2.871089,-2.303139 1.348224,-0.61712 2.71794,-1.229162 4.170571,-1.553837 z" />
    <path
       style="fill:#f2f2f2;stroke-width:0.264583"
       id="path5"
       d="m 76.540764,69.863672 c 0.07218,1.418746 0.0108,2.829835 -0.224817,4.230235 -0.316312,1.462368 -0.513635,2.9376 -0.604797,4.429707 -0.06575,1.66429 -0.07084,3.330022 -0.07885,4.995325 -0.05224,1.144702 0.07171,2.3021 -0.05754,3.441949 -0.02323,0.06788 -0.04645,0.135755 -0.06967,0.203634 0,0 3.479157,1.908625 3.479157,1.908625 v 0 c 0.02745,-0.09295 0.05489,-0.185889 0.08233,-0.278831 0.152858,-1.158124 -3.2e-5,-2.33752 0.04404,-3.502589 -0.0043,-1.658305 -0.0081,-3.317721 0.06816,-4.974661 0.08933,-1.4776 0.266631,-2.94409 0.583189,-4.392086 0.252204,-1.412349 0.326419,-2.830592 0.305679,-4.264263 z" />
    <path
       style="fill:#f2f2f2;stroke-width:0.264583"
       id="path6"
       d="m 78.883575,79.306143 c 1.555906,-0.67714 3.24712,-1.001405 4.909735,-1.302044 0.871932,-0.12615 1.792891,-0.319233 2.659306,-0.03007 0.229455,0.07658 0.857084,0.449008 0.643401,0.335642 -3.032612,-1.608912 -3.458559,-2.345917 -2.420065,-0.947959 0.701101,1.381611 0.630608,2.971477 0.897367,4.465952 0.403513,1.532078 0.56076,2.284804 -0.243163,3.704669 -0.70943,1.040551 -1.439357,2.025179 -2.644809,2.480797 -1.066949,0.184941 -2.083271,-0.132292 -3.014692,-0.633108 -0.160719,-0.08197 -0.321434,-0.163941 -0.482153,-0.245912 0,0 3.070048,2.456998 3.070048,2.456998 v 0 c 0.161679,0.08023 0.323358,0.160459 0.485039,0.240689 1.019027,0.442737 2.119236,0.710342 3.212688,0.362976 1.229788,-0.573363 2.011478,-1.602274 2.75935,-2.709579 0.864428,-1.496409 0.860446,-2.317237 0.369641,-3.952642 -0.324929,-1.526297 -0.218564,-3.137908 -0.828535,-4.59707 C 87.178858,77.00627 87.964845,78.168781 84.030374,75.88536 83.007278,75.291596 81.698403,75.642428 80.6183,75.7855 c -1.694212,0.32489 -3.394985,0.673579 -5.008404,1.299486 z" />
    <path
       style="fill:#f2f2f2;stroke-width:0.264583"
       id="path7"
       d="m 88.165309,69.893043 c 0.363159,2.131047 0.589116,4.278149 0.749292,6.432836 0.15195,2.322526 0.174556,4.650436 0.17263,6.977055 -0.0074,1.350216 -0.01265,2.700438 -0.02008,4.050657 0,0 3.500327,1.784262 3.500327,1.784262 v 0 c -0.0028,-1.358537 -7.94e-4,-2.717136 -0.02151,-4.075557 -0.03346,-2.338871 -0.05531,-4.679172 -0.191259,-7.014871 -0.151916,-2.145318 -0.39968,-4.279577 -0.633823,-6.41608 z" />
    <path
       style="fill:#f2f2f2;stroke-width:0.264583"
       id="path8"
       d="m 94.047857,84.951513 c 0.544343,-1.726785 1.50573,-3.283911 2.696175,-4.636461 1.085149,-1.105154 2.432889,-1.630598 3.965168,-1.495822 1.31282,0.388946 2.38132,0.751481 -2.214285,-1.364257 -0.209574,-0.09648 0.352036,0.301336 0.501266,0.477297 0.533612,0.629198 0.708398,1.361499 0.90297,2.140583 0.275039,1.788496 0.435649,3.627538 0.228429,5.429969 -0.286761,1.788242 -0.999459,2.893179 -2.643125,3.656029 -1.431925,0.509238 -2.963947,0.523996 -4.46547,0.544322 -0.709991,0.02013 -1.430756,-0.01352 -2.114408,-0.226711 -0.202234,-0.06306 -0.7694,-0.350719 -0.58775,-0.241726 3.633819,2.180301 3.677795,2.247802 2.520759,1.328258 0,0 -3.64286,-1.494649 -3.64286,-1.494649 v 0 c 1.832756,1.989338 4.378772,3.011318 6.98913,2.925363 1.541902,-0.03577 3.113924,-0.09175 4.559464,-0.689867 1.70352,-0.901859 2.5049,-2.080376 2.82796,-3.993216 0.23791,-1.839166 0.07,-3.716748 -0.17125,-5.549633 -0.12859,-0.65174 -0.17124,-1.071435 -0.43701,-1.676371 -0.89725,-2.042284 -3.293061,-3.24486 -5.412003,-3.57891 -1.617327,0.01161 -3.023212,0.608531 -4.14173,1.800373 -1.189722,1.417924 -2.155626,3.007934 -2.826718,4.736944 z" />
    <path
       style="fill:#f2f2f2;stroke-width:0.264583"
       id="path9"
       d="m 104.35654,76.172066 c 0.0637,2.524437 0.0488,5.050031 0.0293,7.574936 -0.003,1.863405 -0.14085,3.727302 0.34867,5.542145 0.85163,2.002674 2.92007,2.398371 4.85247,3.455609 0,0 -3.09572,-2.428343 -3.09572,-2.428343 v 0 c 0.9645,0.58003 1.93746,1.146233 2.89351,1.740088 0.14445,0.08972 -0.31904,-0.12727 -0.45702,-0.22666 -0.35063,-0.252577 -0.44218,-0.502791 -0.65876,-0.869384 -0.60225,-1.765911 -0.42957,-3.621717 -0.44568,-5.461979 -0.0194,-2.51496 -0.0351,-5.030642 0.0292,-7.545123 z" />
    <path
       style="fill:#f2f2f2;stroke-width:0.264583"
       id="path10"
       d="m 112.64725,74.707725 c -0.22159,2.321377 -0.66779,4.611433 -0.9799,6.921095 -0.20077,1.621869 -0.31827,3.252478 -0.35572,4.885957 -0.0239,1.216615 -0.0758,2.42738 0.15794,3.626225 0.95019,2.963728 1.91479,2.806872 5.12788,4.683115 1.08587,0.303943 2.2435,0.482319 3.3681,0.341029 0.8625,-0.15122 1.68939,-0.515868 2.44995,-0.941485 0,0 -3.29358,-2.151872 -3.29358,-2.151872 v 0 c -0.74014,0.385548 -1.52836,0.71556 -2.36513,0.805381 -1.09213,0.05404 -2.21267,-0.08456 -3.22358,-0.515242 5.46855,3.297756 2.92741,2.139365 2.19122,1.010404 -0.30892,-0.473734 -0.48765,-1.016651 -0.71996,-1.527783 -0.29983,-1.162198 -0.2035,-2.351948 -0.20462,-3.543544 0.0284,-1.628544 0.0903,-3.257616 0.28269,-4.876424 0.28461,-2.309299 0.70148,-4.597572 1.0486,-6.897761 z" />
    <path
       style="fill:#f2f2f2;stroke-width:0.264583"
       id="path11"
       d="m 113.33801,83.320155 c 2.48167,1.348404 4.94553,2.890031 7.58734,3.937757 1.88598,0.680405 3.91008,0.846013 5.89813,0.961456 0,0 -3.1319,-2.3051 -3.1319,-2.3051 v 0 c -1.96835,-0.128887 -3.96474,-0.312052 -5.81084,-1.058738 -1.5629,-0.691817 -7.37096,-3.722944 -0.84861,-0.110202 z" />
    <path
       style="fill:#f2f2f2;stroke-width:0.264583"
       id="path12"
       d="m 23.192689,99.408936 c 0.529558,-1.289517 1.23364,-2.497881 2.048818,-3.625808 0.93923,-1.307655 1.887913,-1.766197 3.38937,-2.203767 1.893631,-0.606163 3.852016,-0.906288 5.827929,-1.056773 2.552618,-0.143959 5.110258,-0.108973 7.665596,-0.130619 3.211452,-0.01601 6.422972,-0.0046 9.634413,0.0086 2.590482,0.02138 5.093062,0.772668 7.57314,1.443673 2.171972,0.733208 4.379841,1.351365 6.555612,2.071529 2.353668,0.675047 4.719527,1.315333 7.054461,2.053074 1.096844,0.280854 2.033318,0.944154 3.096803,1.307871 0.456374,0.15608 0.926814,0.267527 1.389959,0.402197 2.420612,0.677447 4.829493,1.398937 7.238034,2.118627 3.405352,0.86643 6.75454,1.94192 10.214531,2.57506 2.590376,0.41132 5.191485,0.74364 7.809395,0.90844 1.9919,0.10671 3.98697,0.11858 5.98117,0.1241 1.74455,0.0353 3.47817,0.003 5.21534,-0.15296 2.08842,-0.31938 4.1437,-0.87549 6.15208,-1.52635 1.90439,-0.55776 3.67733,-1.43576 5.3721,-2.45341 2.14837,-1.22273 4.23494,-2.545191 6.21062,-4.031309 1.58497,-1.499322 3.25106,-2.941905 4.69506,-4.58134 1.02879,-1.317588 1.61609,-2.87927 2.20411,-4.423299 0,0 -3.41705,-1.899859 -3.41705,-1.899859 v 0 c -0.56537,1.501982 -1.10053,3.040348 -2.11549,4.311957 -1.42948,1.617027 -3.01646,3.09753 -4.62559,4.532963 -1.95821,1.487133 -4.04517,2.780242 -6.18017,3.997653 -1.69433,0.972484 -3.47322,1.788824 -5.34146,2.371754 -1.99519,0.63461 -4.03518,1.18604 -6.11631,1.44441 -1.73092,0.13801 -3.46246,0.1396 -5.19841,0.12362 -1.98065,-0.003 -3.96254,-0.0107 -5.940574,-0.12486 -2.593896,-0.17823 -5.174382,-0.49118 -7.740089,-0.9143 -3.441137,-0.66691 -6.790838,-1.69316 -10.175089,-2.595427 -2.442957,-0.738334 -4.882648,-1.48845 -7.335872,-2.192147 -1.528985,-0.460862 -2.93951,-1.174488 -4.449718,-1.686904 -2.343009,-0.70368 -4.700246,-1.360156 -7.046002,-2.054743 -2.180727,-0.703075 -4.3776,-1.356167 -6.561325,-2.049743 -2.492941,-0.662281 -5.007412,-1.371682 -7.610795,-1.346809 -3.211957,0.0078 -6.423959,0.0098 -9.63589,-0.0088 -2.573414,-0.01659 -5.148294,0.01349 -7.71939,0.128807 -2.000697,0.163844 -3.969817,0.516427 -5.891364,1.111306 -1.579181,0.474564 -2.569673,1.042104 -3.54366,2.411497 -0.80969,1.144439 -1.522526,2.352307 -2.109987,3.626612 z" />
    <path
       style="fill:#f2f2f2;stroke-width:0.264583"
       id="path13"
       d="m 132.55604,86.117534 c 1.38724,0.36562 2.76804,0.827109 4.09443,1.377685 1.43255,0.941332 0.31342,0.194501 -2.81092,-1.571471 -0.0202,-0.0114 0.0597,0.02522 0.0514,0.04689 -0.014,0.03674 -0.0606,0.05123 -0.0957,0.06902 -0.0748,0.03793 -0.15177,0.07304 -0.23209,0.09719 -0.12227,0.03676 -0.249,0.05659 -0.37349,0.08488 -1.04876,0.406622 -2.18207,0.424928 -3.26639,0.666297 -0.92014,0.187259 -1.80409,0.351706 -2.62309,0.829294 -0.84752,0.99853 0.60649,2.165311 1.28574,2.812431 0.19396,0.160322 0.38791,0.320643 0.58187,0.480968 0,0 3.62446,1.455758 3.62446,1.455758 v 0 c -0.19623,-0.153709 -0.39246,-0.307422 -0.58869,-0.461131 -0.27009,-0.227764 -1.78285,-1.580272 -1.73187,-1.966421 0.009,-0.07179 0.0938,-0.110381 0.14064,-0.165571 0.7905,-0.427273 1.67627,-0.527171 2.53986,-0.738663 1.1023,-0.210315 2.2301,-0.303758 3.29549,-0.684427 2.95296,-1.026176 -1.12299,-2.576222 -2.87707,-3.373758 -1.36408,-0.50564 -2.73908,-0.988279 -4.13871,-1.386043 z" />
    <path
       style="fill:#f2f2f2;stroke-width:0.264583"
       id="path14"
       d="m 14.138366,67.880152 c 3.2077,-0.340654 6.419613,-0.606515 9.641148,-0.775666 2.138822,0.02529 4.336156,-0.144224 6.435095,0.38318 0.640959,0.161057 2.164879,0.729618 2.788357,0.955069 1.13571,0.478031 1.3472,0.539308 2.43496,1.106464 0.365633,0.190637 1.438582,0.806762 1.080921,0.601559 -4.542271,-2.606087 -1.537885,-0.810294 -0.503732,-0.02077 1.0434,0.770996 1.948468,1.78126 3.072701,2.444523 1.285613,0.75847 2.5898,1.485008 3.884703,2.227511 1.003236,0.601776 2.114539,0.795724 3.260211,0.89254 0.205981,0.01143 0.411962,0.02286 0.617945,0.03429 0,0 -3.158432,-2.326738 -3.158432,-2.326738 v 0 c -0.203245,-0.01561 -0.40649,-0.03123 -0.609735,-0.04685 -1.123862,-0.140412 -2.189958,-0.416319 -3.168284,-1.012724 0.940659,0.553659 1.881322,1.107318 2.821985,1.660977 -0.183489,-0.116353 -0.374537,-0.221562 -0.550463,-0.349057 -0.893337,-0.647409 -1.735358,-1.37161 -2.574343,-2.087406 -2.90204,-2.288786 -6.199378,-4.082809 -9.617771,-5.47166 -0.84781,-0.295556 -1.956057,-0.709015 -2.833079,-0.903875 -2.10736,-0.46822 -4.297028,-0.269081 -6.433201,-0.280387 -3.262475,0.168505 -6.513108,0.495208 -9.774495,0.654611 z" />
  </g>
</svg>
